<?xml version="1.0" encoding="utf-8"?>
<!-- Generator: Adobe Illustrator 23.0.0, SVG Export Plug-In . SVG Version: 6.00 Build 0)  -->
<svg version="1.1" id="Layer_1" xmlns="http://www.w3.org/2000/svg" xmlns:xlink="http://www.w3.org/1999/xlink" x="0px" y="0px"
	 viewBox="0 0 32 32" style="enable-background:new 0 0 32 32;" xml:space="preserve">
<style type="text/css">
	.st0{fill:#0099FF;}
	.st1{fill:#FFFFFF;}
	.st2{display:none;}
	.st3{display:inline;fill:#0099FF;}
	.st4{display:inline;fill:#FFFFFF;}
	.st5{display:inline;}
</style>
<g>
	<circle class="st0" cx="16.11" cy="16" r="16"/>
	<g>
		<g>
			<path class="st1" d="M23.32,22.9c0.39,0,0.74-0.13,1.03-0.39l-4.98-4.98c-0.12,0.09-0.24,0.17-0.34,0.25
				c-0.37,0.27-0.67,0.49-0.91,0.64c-0.23,0.15-0.54,0.31-0.93,0.47c-0.39,0.16-0.75,0.24-1.08,0.24h-0.01H16.1
				c-0.33,0-0.69-0.08-1.08-0.24c-0.39-0.16-0.69-0.32-0.93-0.47c-0.23-0.15-0.53-0.37-0.91-0.64c-0.1-0.08-0.22-0.16-0.34-0.25
				l-4.98,4.98c0.29,0.26,0.63,0.39,1.03,0.39H23.32z"/>
			<path class="st1" d="M8.31,14.4c-0.37-0.25-0.7-0.53-0.99-0.85v7.57l4.39-4.39C10.83,16.12,9.7,15.35,8.31,14.4z"/>
			<path class="st1" d="M23.91,14.4c-1.34,0.9-2.47,1.68-3.41,2.34l4.39,4.39v-7.57C24.61,13.86,24.28,14.15,23.91,14.4z"/>
			<path class="st1" d="M23.32,9.1H8.89C8.39,9.1,8,9.27,7.73,9.61c-0.27,0.34-0.41,0.76-0.41,1.27c0,0.41,0.18,0.86,0.54,1.34
				c0.36,0.48,0.74,0.86,1.15,1.13c0.22,0.16,0.89,0.62,2.01,1.4c0.6,0.42,1.13,0.78,1.58,1.1c0.38,0.27,0.72,0.5,0.99,0.69
				c0.03,0.02,0.08,0.06,0.15,0.1c0.07,0.05,0.16,0.12,0.27,0.19c0.21,0.15,0.39,0.28,0.53,0.37c0.14,0.09,0.31,0.2,0.51,0.32
				c0.2,0.12,0.39,0.21,0.56,0.26c0.18,0.06,0.34,0.09,0.49,0.09h0.01h0.01c0.15,0,0.31-0.03,0.49-0.09
				c0.18-0.06,0.36-0.15,0.56-0.26c0.2-0.12,0.37-0.22,0.51-0.32c0.14-0.09,0.32-0.22,0.53-0.37c0.11-0.08,0.2-0.14,0.27-0.19
				c0.07-0.05,0.12-0.08,0.15-0.1c0.21-0.15,0.55-0.38,0.99-0.69c0.81-0.56,2.01-1.4,3.6-2.5c0.48-0.33,0.88-0.74,1.2-1.21
				c0.32-0.47,0.48-0.96,0.48-1.48c0-0.43-0.16-0.8-0.47-1.11C24.12,9.25,23.75,9.1,23.32,9.1z"/>
		</g>
	</g>
</g>
<g class="st2">
	<circle class="st3" cx="16.11" cy="16" r="16"/>
	<path class="st4" d="M25.56,21.74l-3.06-3.06c-0.61-0.61-1.62-0.59-2.25,0.04l-1.54,1.54c-0.1-0.05-0.2-0.11-0.3-0.17
		c-0.97-0.54-2.3-1.28-3.7-2.68c-1.4-1.4-2.14-2.74-2.68-3.71c-0.06-0.1-0.11-0.2-0.17-0.3l1.03-1.03l0.51-0.51
		c0.63-0.63,0.65-1.64,0.04-2.25l-3.06-3.06C9.78,5.97,8.77,5.98,8.14,6.62L7.28,7.48L7.3,7.5C7.01,7.87,6.77,8.3,6.59,8.76
		c-0.17,0.44-0.27,0.85-0.32,1.27c-0.4,3.34,1.13,6.4,5.27,10.55c5.73,5.73,10.35,5.3,10.55,5.28c0.43-0.05,0.85-0.16,1.27-0.32
		c0.45-0.18,0.88-0.42,1.25-0.71l0.02,0.02l0.87-0.85C26.15,23.36,26.16,22.35,25.56,21.74z"/>
</g>
<g class="st2">
	<circle class="st3" cx="16.11" cy="16" r="16"/>
	<g class="st5">
		<path class="st1" d="M20.52,10.8c0.69,0,1.25-0.56,1.25-1.25v-1.3c0-0.69-0.56-1.25-1.25-1.25c-0.69,0-1.25,0.56-1.25,1.25v1.3
			C19.28,10.24,19.83,10.8,20.52,10.8z"/>
		<path class="st1" d="M24.96,9.16h-2.51v0.63c0,1.05-0.85,1.9-1.9,1.9c-1.05,0-1.9-0.85-1.9-1.9V9.16h-5.07v0.63
			c0,1.05-0.85,1.9-1.9,1.9s-1.9-0.85-1.9-1.9V9.16L7.24,9.13V25H8.5h15.21l1.27,0L24.96,9.16z M23.71,23.74H8.5V13.6h15.21
			L23.71,23.74L23.71,23.74z"/>
		<path class="st1" d="M11.65,10.8c0.69,0,1.25-0.56,1.25-1.25v-1.3C12.9,7.56,12.34,7,11.65,7s-1.25,0.56-1.25,1.25v1.3
			C10.41,10.24,10.96,10.8,11.65,10.8z"/>
		<rect x="13.58" y="14.96" class="st1" width="2" height="1.76"/>
		<rect x="16.81" y="14.96" class="st1" width="2" height="1.76"/>
		<rect x="19.8" y="14.96" class="st1" width="2" height="1.76"/>
		<rect x="13.58" y="17.88" class="st1" width="2" height="1.76"/>
		<rect x="16.81" y="17.88" class="st1" width="2" height="1.76"/>
		<rect x="19.8" y="17.88" class="st1" width="2" height="1.76"/>
		<rect x="13.58" y="20.87" class="st1" width="2" height="1.76"/>
		<rect x="10.41" y="17.88" class="st1" width="2" height="1.76"/>
		<rect x="10.41" y="20.87" class="st1" width="2" height="1.76"/>
		<rect x="16.81" y="20.87" class="st1" width="2" height="1.76"/>
		<rect x="19.8" y="20.87" class="st1" width="2" height="1.76"/>
	</g>
</g>
</svg>
