<?xml version="1.0" encoding="utf-8"?>
<!-- Generator: Adobe Illustrator 23.0.0, SVG Export Plug-In . SVG Version: 6.00 Build 0)  -->
<svg version="1.1" id="Layer_1" xmlns="http://www.w3.org/2000/svg" xmlns:xlink="http://www.w3.org/1999/xlink" x="0px" y="0px"
	 viewBox="0 0 98 218" style="enable-background:new 0 0 98 218;" xml:space="preserve">
<style type="text/css">
	.st0{display:none;}
	.st1{display:inline;}
	.st2{fill:#FF9933;}
	.st3{fill:none;stroke:#FF9933;stroke-width:7;stroke-miterlimit:10;}
	.st4{fill:none;stroke:#FF9933;stroke-width:7;stroke-miterlimit:10;stroke-dasharray:10,10;}
	.st5{fill:#543C2A;}
	.st6{fill:#FDCC9B;}
	.st7{fill:#FCBC85;}
	.st8{fill:#3B2519;}
	.st9{fill:#FFFFFF;}
	.st10{fill:#684B37;}
	.st11{fill:#F7945E;}
	.st12{fill:#F9AA8D;}
	.st13{fill:#8617AF;}
	.st14{fill:#671389;}
	.st15{fill:#432B1F;}
	.st16{fill:#51362A;}
	.st17{fill:#694B74;}
	.st18{fill:#563C60;}
	.st19{fill:#B56A18;}
	.st20{fill:#F36C21;}
	.st21{fill:#86461B;}
	.st22{fill:#3D271E;}
	.st23{fill:#BF805A;}
	.st24{fill:#744A25;}
	.st25{fill:#573514;}
	.st26{fill:#330C00;}
	.st27{fill:#00B497;}
	.st28{fill:#8FD6E7;}
	.st29{fill:#F6B1CF;}
	.st30{fill:#F283B4;}
	.st31{fill:#3ABDAA;}
	.st32{fill:#401900;}
	.st33{fill:#005889;}
	.st34{fill:none;stroke:#005889;stroke-width:7;stroke-miterlimit:10;}
	.st35{fill:none;stroke:#005889;stroke-width:7;stroke-miterlimit:10;stroke-dasharray:10,10;}
	.st36{fill:#35495E;}
	.st37{fill:#B0D3F0;}
	.st38{fill:#90BAE1;}
	.st39{fill:#A5A5A4;}
	.st40{fill:#14A085;}
	.st41{fill:#4482C3;}
	.st42{fill:#E6E7E8;}
	.st43{fill:#CB9080;}
	.st44{fill:#2C3E50;}
	.st45{fill:#BAC6F4;}
	.st46{fill:#5078F2;}
	.st47{fill:#223E60;}
	.st48{fill:#BDE2F2;}
	.st49{fill:#ECF0F1;}
	.st50{fill:#3B97D3;}
</style>
<g class="st0">
	<g class="st1">
		<circle class="st2" cx="49" cy="49" r="49"/>
	</g>
	<g class="st1">
		<g>
			<line class="st3" x1="49" y1="98" x2="49" y2="103"/>
			<line class="st4" x1="49" y1="113" x2="49" y2="208"/>
			<line class="st3" x1="49" y1="213" x2="49" y2="218"/>
		</g>
	</g>
	<g class="st1">
		<path class="st5" d="M49,35.56c0,0-32.29,0.24-32.41,16.46C16.5,63.36,19,79.91,20.52,88.86c3.69,2.64,7.75,4.78,12.1,6.32H49
			h16.38c4.35-1.54,8.41-3.68,12.1-6.32c1.52-8.96,4.03-25.51,3.94-36.84C81.29,35.8,49,35.56,49,35.56z"/>
		<g>
			<g>
				<rect x="42.33" y="75.19" class="st6" width="13.34" height="14.94"/>
				<path class="st7" d="M42.33,76.95c0,0,5.61,3.57,13.34,2.75v-4.51H42.33V76.95z"/>
				<ellipse class="st7" cx="23.09" cy="52.02" rx="6.51" ry="7.43"/>
				<ellipse class="st7" cx="74.9" cy="52.02" rx="6.51" ry="7.43"/>
				<path class="st6" d="M74.88,37.84c0-10.94-8-18.94-25.88-18.94s-25.88,8-25.88,18.94S21.25,77.59,49,77.59
					C76.75,77.59,74.88,48.78,74.88,37.84z"/>
				<g>
					<g>
						<ellipse class="st8" cx="36.39" cy="50.24" rx="2.8" ry="3.07"/>
						<circle class="st9" cx="35.17" cy="48.89" r="0.84"/>
					</g>
					<path class="st10" d="M31.91,43.63c1.32,0.51,3.45-1.72,8.32,0.22c0.89,0.35,1.42-3.03-3.8-3.03
						C31.91,40.82,31.11,43.32,31.91,43.63z"/>
					<g>
						<ellipse class="st8" cx="61.95" cy="50.24" rx="2.8" ry="3.07"/>
						<circle class="st9" cx="60.73" cy="48.89" r="0.84"/>
					</g>
					<path class="st10" d="M66.09,43.63c-1.32,0.51-3.45-1.72-8.32,0.22c-0.89,0.35-1.42-3.03,3.8-3.03
						C66.09,40.82,66.89,43.32,66.09,43.63z"/>
				</g>
				<path class="st7" d="M49,61.04c-2.77,0-4.44-2.07-4.44-1.07c0,1,0.8,2.9,4.44,2.9c3.64,0,4.44-1.9,4.44-2.9
					C53.44,58.97,51.77,61.04,49,61.04z"/>
				<path class="st7" d="M49,70.23c-0.96,0-1.53-0.71-1.53-0.37c0,0.35,0.28,1,1.53,1c1.26,0,1.53-0.66,1.53-1
					C50.53,69.52,49.96,70.23,49,70.23z"/>
				<path class="st11" d="M49,67.69c-4.39,0-7.03-1.79-7.03-1.33s1.27,2.23,7.03,2.23s7.03-1.78,7.03-2.23
					C56.03,65.9,53.39,67.69,49,67.69z"/>
			</g>
			<circle class="st12" cx="32.79" cy="60.05" r="3.8"/>
			<circle class="st12" cx="65.67" cy="60.05" r="3.8"/>
		</g>
		<path class="st13" d="M49,81.19c-10.44,0-20.19,4.63-25.36,9.74C31.03,95.42,39.72,98,49,98c9.28,0,17.97-2.58,25.36-7.07
			C69.19,85.83,59.44,81.19,49,81.19z"/>
		<path class="st14" d="M43.43,81.62c-0.09,0.01-0.17,0.03-0.26,0.04c-1.8,0.29-3.55,0.69-5.24,1.2L49,98v-8.4l-4.99-8.04
			C43.82,81.58,43.62,81.6,43.43,81.62z"/>
		<path class="st14" d="M54.57,81.62c0.09,0.01,0.17,0.03,0.26,0.04c1.8,0.29,3.55,0.69,5.24,1.2L49,98v-8.4l4.99-8.04
			C54.18,81.58,54.38,81.6,54.57,81.62z"/>
		<path class="st10" d="M49,5.54c-30.15,0-33.68,21.32-32.41,46.48C17.85,77.18,39.2,89.6,39.2,89.6s-23.92-34.23-4.02-64.24
			c0,0-3.74,6.42-3.53,11.81c0,0,4.69-1.6,17.36-1.6c12.67,0,17.36,1.6,17.36,1.6c0.2-5.38-3.53-11.81-3.53-11.81
			C82.72,55.37,58.8,89.6,58.8,89.6s21.34-12.42,22.61-37.57C82.68,26.87,79.15,5.54,49,5.54z"/>
		<path class="st6" d="M42.33,81.77L49,92.85l6.67-11.08C55.67,81.77,48.75,79.25,42.33,81.77z"/>
	</g>
</g>
<g class="st0">
	<g class="st1">
		<circle class="st2" cx="49" cy="49" r="49"/>
	</g>
	<g class="st1">
		<g>
			<line class="st3" x1="49" y1="98" x2="49" y2="103"/>
			<line class="st4" x1="49" y1="113" x2="49" y2="208"/>
			<line class="st3" x1="49" y1="213" x2="49" y2="218"/>
		</g>
	</g>
	<g class="st1">
		<path class="st15" d="M20.06,70.69c1.79,4.99,1,12.33-0.03,17.82c4.5,3.3,9.58,5.85,15.06,7.47h12.09V45.63l-31.76,6.09
			C15.43,51.72,17.18,62.64,20.06,70.69z"/>
		<path class="st15" d="M78.97,51.72l-31.76-6.09v50.35h15.69c4.23-1.25,8.23-3.06,11.9-5.33c-1.21-5.58-2.5-14.29-0.47-19.96
			C77.23,62.64,78.97,51.72,78.97,51.72z"/>
		<g>
			<g>
				<rect x="40.47" y="75.04" class="st6" width="13.43" height="15.04"/>
				<path class="st7" d="M40.47,76.81c0,0,5.65,3.6,13.43,2.76v-4.54H40.47V76.81z"/>
				<ellipse class="st7" cx="21.11" cy="51.72" rx="6.55" ry="7.48"/>
				<ellipse class="st7" cx="73.26" cy="51.72" rx="6.55" ry="7.48"/>
				<path class="st6" d="M73.24,37.44c0-11.01-8.06-19.07-26.05-19.07c-17.99,0-26.05,8.06-26.05,19.07s-1.88,40.01,26.05,40.01
					C75.12,77.46,73.24,48.45,73.24,37.44z"/>
				<g>
					<g>
						<ellipse class="st8" cx="34.5" cy="49.93" rx="2.82" ry="3.09"/>
						<circle class="st9" cx="33.27" cy="48.56" r="0.84"/>
					</g>
					<path class="st16" d="M29.99,43.27c1.33,0.51,3.47-1.73,8.38,0.22c0.89,0.36,1.43-3.05-3.83-3.05
						C29.99,40.44,29.18,42.96,29.99,43.27z"/>
					<g>
						<ellipse class="st8" cx="60.22" cy="49.93" rx="2.82" ry="3.09"/>
						<circle class="st9" cx="58.99" cy="48.56" r="0.84"/>
					</g>
					<path class="st16" d="M64.39,43.27c-1.33,0.51-3.47-1.73-8.38,0.22c-0.89,0.36-1.43-3.05,3.83-3.05
						C64.39,40.44,65.19,42.96,64.39,43.27z"/>
				</g>
				<path class="st7" d="M47.19,60.79c-2.79,0-4.46-2.08-4.46-1.07c0,1.01,0.81,2.92,4.46,2.92c3.66,0,4.46-1.91,4.46-2.92
					C51.65,58.71,49.97,60.79,47.19,60.79z"/>
				<path class="st7" d="M47.19,70.05c-0.96,0-1.54-0.72-1.54-0.37c0,0.35,0.28,1.01,1.54,1.01c1.27,0,1.54-0.66,1.54-1.01
					C48.73,69.33,48.15,70.05,47.19,70.05z"/>
				<path class="st11" d="M47.19,67.49c-4.42,0-7.08-1.8-7.08-1.34c0,0.46,1.28,2.25,7.08,2.25s7.08-1.79,7.08-2.25
					C54.26,65.69,51.6,67.49,47.19,67.49z"/>
			</g>
			<circle class="st12" cx="30.87" cy="59.8" r="3.83"/>
			<circle class="st12" cx="63.97" cy="59.8" r="3.83"/>
		</g>
		<path class="st17" d="M47.19,81.08c-10.01,0-19.4,4.23-24.76,9.08C30.08,95.11,39.2,98,49,98c8.86,0,17.17-2.36,24.34-6.48
			C68.32,86.14,58.13,81.08,47.19,81.08z"/>
		<path class="st18" d="M47.1,81.08c-3.32,0-6.72,0.46-10.02,1.24c0.02,0.03,3.66,4.67,10.02,4.67c5.89,0,9.81-3.97,10.38-4.58
			C54.07,81.57,50.54,81.08,47.1,81.08z"/>
		<path class="st6" d="M40.47,81.67c0,0,1.96,2.44,6.71,2.44s6.71-2.44,6.71-2.44S46.93,79.13,40.47,81.67z"/>
		<path class="st16" d="M70.82,14.21C53.9-5.93,21.67,2.13,14.56,29.92c-7.12,27.8,5.5,40.77,5.5,40.77
			c-4.84-16.38,6.45-33.32,16.11-33.52c9.67-0.2,24.98-5.64,24.98-5.64s2.57,13.07,10.88,17.88c6.24,3.61,3.87,14.22,2.26,21.28
			C80.33,68.39,98.21,22.47,70.82,14.21z"/>
	</g>
</g>
<g class="st0">
	<g class="st1">
		<circle class="st2" cx="49" cy="49" r="49"/>
	</g>
	<g class="st1">
		<g>
			<line class="st3" x1="49" y1="98" x2="49" y2="103"/>
			<line class="st4" x1="49" y1="113" x2="49" y2="208"/>
			<line class="st3" x1="49" y1="213" x2="49" y2="218"/>
		</g>
	</g>
	<g class="st1">
		<g>
			<rect x="42.04" y="74.2" class="st6" width="13.92" height="15.59"/>
			<path class="st7" d="M42.04,76.03c0,0,5.86,3.73,13.92,2.87v-4.7H42.04V76.03z"/>
			<ellipse class="st7" cx="21.97" cy="50.02" rx="6.79" ry="7.75"/>
			<ellipse class="st7" cx="76.03" cy="50.02" rx="6.79" ry="7.75"/>
			<path class="st6" d="M76.01,35.22c0-11.41-8.35-19.77-27.01-19.77S21.99,23.8,21.99,35.22S20.05,76.7,49,76.7
				S76.01,46.63,76.01,35.22z"/>
			<g>
				<g>
					<ellipse class="st8" cx="35.85" cy="48.17" rx="2.92" ry="3.2"/>
					<circle class="st9" cx="34.57" cy="46.75" r="0.87"/>
				</g>
				<path class="st16" d="M31.17,40.23c1.38,0.69,3.6-2.35,8.68,0.3c0.93,0.48,1.48-4.12-3.97-4.12
					C31.17,36.4,30.33,39.81,31.17,40.23z"/>
				<g>
					<ellipse class="st8" cx="62.51" cy="48.17" rx="2.92" ry="3.2"/>
					<circle class="st9" cx="61.24" cy="46.75" r="0.87"/>
				</g>
				<path class="st16" d="M66.83,40.23c-1.38,0.69-3.6-2.35-8.68,0.3c-0.93,0.48-1.48-4.12,3.97-4.12
					C66.83,36.4,67.67,39.81,66.83,40.23z"/>
			</g>
			<path class="st7" d="M49,59.43c-2.89,0-4.63-2.16-4.63-1.11c0,1.04,0.84,3.03,4.63,3.03s4.63-1.98,4.63-3.03
				S51.89,59.43,49,59.43z"/>
			<path class="st7" d="M49,69.03c-1,0-1.6-0.75-1.6-0.39s0.29,1.05,1.6,1.05s1.6-0.69,1.6-1.05S50,69.03,49,69.03z"/>
			<path class="st11" d="M49,66.37c-4.58,0-7.34-1.86-7.34-1.39c0,0.47,1.32,2.33,7.34,2.33s7.34-1.86,7.34-2.33
				C56.34,64.5,53.58,66.37,49,66.37z"/>
		</g>
		<path class="st19" d="M49,80.46c-10.13,0-20.97,4.18-27.58,9.04C29.28,94.86,38.77,98,49,98s19.72-3.14,27.58-8.5
			C69.97,84.64,59.13,80.46,49,80.46z"/>
		<path class="st20" d="M49,80.46c-3.4,0-6.89,0.48-10.27,1.29c0.02,0.03,3.75,4.84,10.27,4.84c6.04,0,10.06-4.12,10.64-4.75
			C56.14,80.97,52.53,80.46,49,80.46z"/>
		<path class="st6" d="M42.04,81.07c0,0,2.04,2.53,6.96,2.53s6.96-2.53,6.96-2.53S48.74,78.44,42.04,81.07z"/>
		<path class="st16" d="M71.2,13.02c0,0-10.02-12.74-30.85-7.93C19.52,9.88,17.96,22.41,18.58,34.6c0.63,12.19,2.3,19.34,4.27,18.46
			c1.98-0.88,0.95-8.93,1.16-10.79c0.21-1.86,2.09-10.25,14.76-9c12.67,1.25,23.34-3.34,23.34-3.34s4.3,5.43,7.13,6.47
			c5.65,2.08,3.8,15.94,6.01,15.94S88.32,20.32,71.2,13.02z"/>
	</g>
</g>
<g class="st0">
	<g class="st1">
		<circle class="st2" cx="49" cy="49" r="49"/>
	</g>
	<g class="st1">
		<g>
			<line class="st3" x1="49" y1="98" x2="49" y2="103"/>
			<line class="st4" x1="49" y1="113" x2="49" y2="208"/>
			<line class="st3" x1="49" y1="213" x2="49" y2="218"/>
		</g>
	</g>
	<g class="st1">
		<g>
			<rect x="42.12" y="74.48" class="st6" width="13.75" height="15.4"/>
			<path class="st7" d="M42.12,76.3c0,0,5.78,3.68,13.75,2.83v-4.65H42.12V76.3z"/>
			<ellipse class="st7" cx="22.29" cy="50.6" rx="6.71" ry="7.66"/>
			<ellipse class="st7" cx="75.71" cy="50.6" rx="6.71" ry="7.66"/>
			<path class="st6" d="M75.68,35.98c0-11.28-8.25-19.53-26.68-19.53S22.32,24.7,22.32,35.98c0,11.28-1.93,40.98,26.68,40.98
				S75.68,47.26,75.68,35.98z"/>
			<g>
				<g>
					<ellipse class="st8" cx="36.01" cy="48.77" rx="2.89" ry="3.16"/>
					<circle class="st9" cx="34.75" cy="47.37" r="0.86"/>
				</g>
				<path class="st21" d="M31.39,40.93c1.37,0.68,3.56-2.32,8.58,0.29c0.92,0.48,1.46-4.07-3.92-4.07
					C31.39,37.15,30.56,40.52,31.39,40.93z"/>
				<g>
					<ellipse class="st8" cx="62.35" cy="48.77" rx="2.89" ry="3.16"/>
					<circle class="st9" cx="61.09" cy="47.37" r="0.86"/>
				</g>
				<path class="st21" d="M66.61,40.93c-1.37,0.68-3.56-2.32-8.58,0.29c-0.92,0.48-1.46-4.07,3.92-4.07
					C66.61,37.15,67.44,40.52,66.61,40.93z"/>
			</g>
			<path class="st7" d="M49,59.89c-2.85,0-4.57-2.13-4.57-1.1c0,1.03,0.83,2.99,4.57,2.99c3.75,0,4.57-1.96,4.57-2.99
				C53.57,57.76,51.85,59.89,49,59.89z"/>
			<path class="st7" d="M49,69.38c-0.99,0-1.58-0.74-1.58-0.38s0.29,1.03,1.58,1.03c1.3,0,1.58-0.68,1.58-1.03
				C50.58,68.64,49.99,69.38,49,69.38z"/>
			<path class="st11" d="M49,66.75c-4.52,0-7.25-1.84-7.25-1.37c0,0.47,1.31,2.3,7.25,2.3s7.25-1.84,7.25-2.3
				C56.25,64.91,53.52,66.75,49,66.75z"/>
		</g>
		<path class="st22" d="M49,80.67c-10.05,0-20.81,4.17-27.33,9C29.48,94.93,38.88,98,49,98s19.52-3.07,27.33-8.33
			C69.81,84.84,59.05,80.67,49,80.67z"/>
		<path class="st23" d="M49,80.67c-3.36,0-6.81,0.47-10.15,1.27c0.02,0.03,3.7,4.78,10.15,4.78c5.97,0,9.93-4.07,10.51-4.69
			C56.06,81.17,52.49,80.67,49,80.67z"/>
		<path class="st6" d="M42.12,81.27c0,0,2.01,2.49,6.88,2.49s6.88-2.49,6.88-2.49S48.74,78.68,42.12,81.27z"/>
		<path class="st21" d="M49,71.08v6.39c-14.37,0-19.11-7.66-20.52-9.8c-1.04-1.58,6.76,5.57,13.64,5.57
			C45.15,73.25,45.01,71.08,49,71.08z"/>
		<path class="st21" d="M49,71.08v6.39c14.37,0,19.11-7.66,20.52-9.8c1.04-1.58-6.76,5.57-13.64,5.57
			C52.85,73.25,52.99,71.08,49,71.08z"/>
		<path class="st21" d="M49.18,28.55V6c-23.56,0-27.96,8.8-29.06,25.3c-1.1,16.5,1.38,22.18,3.03,22.16
			c1.65-0.02,0.76-18.92,3.02-22.99C30.3,23.05,37.67,28.55,49.18,28.55z"/>
		<path class="st21" d="M49.18,28.55V6c23.56,0,27.96,8.8,29.06,25.3c1.1,16.5-1.38,22.18-3.03,22.16
			c-1.65-0.02-0.76-18.92-3.02-22.99C68.06,23.05,60.69,28.55,49.18,28.55z"/>
		<path class="st24" d="M21.68,89.68c3.87,2.6,8.13,4.67,12.68,6.09V83.24h0C29.45,84.9,25.01,87.2,21.68,89.68z"/>
		<path class="st25" d="M29.76,94.07c1.81,0.77,3.68,1.43,5.6,1.99V82.18c0,0-2.68,1.03-3.61,1.51L29.76,94.07z"/>
		<path class="st24" d="M76.32,89.68c-3.34-2.48-7.78-4.78-12.68-6.43h0v12.53C68.19,94.35,72.46,92.28,76.32,89.68z"/>
		<path class="st25" d="M68.24,94.07L66.26,83.7c-0.93-0.48-3.61-1.51-3.61-1.51v13.87C64.56,95.5,66.43,94.85,68.24,94.07z"/>
	</g>
</g>
<g class="st0">
	<g class="st1">
		<circle class="st2" cx="49" cy="49" r="49"/>
	</g>
	<g class="st1">
		<g>
			<line class="st3" x1="49" y1="98" x2="49" y2="103"/>
			<line class="st4" x1="49" y1="113" x2="49" y2="208"/>
			<line class="st3" x1="49" y1="213" x2="49" y2="218"/>
		</g>
	</g>
	<g class="st1">
		<path class="st26" d="M80.73,73.39c2.82-11.48,1.24-30.08,0-40.24c-1.21-9.93-30.37-7.88-31.73-7.78
			c-1.36-0.1-30.52-2.15-31.73,7.78c-1.24,10.16-2.82,28.76,0,40.24c1.39,5.67-2.34,7.25-5.33,7.65
			c6.89,7.96,16.29,13.69,26.98,15.93c5.42,0.08,9.55-0.3,10.08-0.36c0.53,0.05,4.66,0.44,10.08,0.36
			c10.69-2.24,20.09-7.96,26.98-15.93C83.07,80.64,79.34,79.06,80.73,73.39z"/>
		<path class="st27" d="M49.77,86V75.63c0,0,16.47-0.5,16.47,9.47L49.77,86z"/>
		<path class="st27" d="M48.36,86V75.63c0,0-16.47-0.5-16.47,9.47L48.36,86z"/>
		<g>
			<g>
				<rect x="42.52" y="75.62" class="st6" width="13.08" height="14.66"/>
				<path class="st7" d="M42.52,77.35c0,0,5.5,3.51,13.08,2.69v-4.42H42.52V77.35z"/>
				<ellipse class="st7" cx="23.65" cy="52.9" rx="6.38" ry="7.28"/>
				<ellipse class="st7" cx="74.48" cy="52.9" rx="6.38" ry="7.28"/>
				<path class="st6" d="M74.45,38.99c0-10.73-7.85-18.58-25.38-18.58c-17.53,0-25.38,7.85-25.38,18.58
					c0,10.73-1.83,38.99,25.38,38.99C76.28,77.98,74.45,49.72,74.45,38.99z"/>
				<g>
					<g>
						<ellipse class="st8" cx="36.7" cy="51.16" rx="2.75" ry="3.01"/>
						<circle class="st9" cx="35.5" cy="49.83" r="0.82"/>
					</g>
					<path class="st10" d="M32.31,44.67c1.3,0.5,3.39-1.69,8.16,0.21c0.87,0.35,1.39-2.97-3.73-2.97
						C32.31,41.91,31.52,44.37,32.31,44.67z"/>
					<g>
						<ellipse class="st8" cx="61.77" cy="51.16" rx="2.75" ry="3.01"/>
						<circle class="st9" cx="60.57" cy="49.83" r="0.82"/>
					</g>
					<path class="st10" d="M65.82,44.67c-1.3,0.5-3.39-1.69-8.16,0.21c-0.87,0.35-1.39-2.97,3.73-2.97
						C65.82,41.91,66.61,44.37,65.82,44.67z"/>
				</g>
				<path class="st7" d="M49.07,61.74c-2.72,0-4.35-2.03-4.35-1.05c0,0.98,0.79,2.85,4.35,2.85s4.35-1.86,4.35-2.85
					C53.42,59.71,51.78,61.74,49.07,61.74z"/>
				<path class="st7" d="M49.07,70.76c-0.94,0-1.51-0.7-1.51-0.36c0,0.34,0.27,0.98,1.51,0.98s1.5-0.65,1.5-0.98
					C50.57,70.06,50,70.76,49.07,70.76z"/>
				<path class="st11" d="M49.07,68.26c-4.3,0-6.9-1.75-6.9-1.31c0,0.44,1.24,2.19,6.9,2.19s6.9-1.75,6.9-2.19
					C55.96,66.51,53.37,68.26,49.07,68.26z"/>
			</g>
			<circle class="st12" cx="33.17" cy="60.77" r="3.73"/>
			<circle class="st12" cx="65.42" cy="60.77" r="3.73"/>
		</g>
		<path class="st28" d="M49.07,81.51c-10.32,0-19.96,4.61-25,9.67C31.37,95.51,39.89,98,49,98c9.14,0,17.69-2.51,25.01-6.87
			C68.96,86.1,59.35,81.51,49.07,81.51z"/>
		<path class="st29" d="M49.07,97.25V81.51c-4.19,0-8.26,0.78-11.96,2.02L49.07,97.25z"/>
		<path class="st29" d="M49.07,97.25V81.51c4.19,0,8.26,0.78,11.96,2.02L49.07,97.25z"/>
		<path class="st30" d="M49.07,81.51c-3.05,0-6.03,0.42-8.86,1.12c0.4,2.45,2.06,7.47,8.86,7.47c6.8,0,8.46-5.02,8.86-7.47
			C55.09,81.93,52.11,81.51,49.07,81.51z"/>
		<path class="st6" d="M42.52,82.08c0,0,0,5.89,6.54,5.89c6.54,0,6.54-5.89,6.54-5.89S48.82,79.61,42.52,82.08z"/>
		<path class="st31" d="M39.05,82.74c0.2-1.27-7.62-0.33-7.56,3.26c0.06,3.59,8.64,6.36,10.99,7.67c2.36,1.31,6.54,4.33,6.54,4.33
			s0.79-3.04-2.88-5.38C42.49,90.28,38.79,84.44,39.05,82.74z"/>
		<path class="st31" d="M58.98,82.74c-0.2-1.27,7.62-0.33,7.56,3.26c-0.06,3.59-8.64,6.36-10.99,7.67C53.19,94.98,49.01,98,49.01,98
			s-0.79-3.04,2.88-5.38C55.55,90.28,59.24,84.44,58.98,82.74z"/>
		<path class="st32" d="M49.07,6C19.62,6,15.7,31.71,15.7,50.65c0,18.94,9.81,29.94,17.47,33.02c0,0-12.23-21.68-6.22-41.75
			c4.92-16.42,22.11-11.57,22.11-11.57s17.19-4.85,22.11,11.57c6.02,20.07-6.22,41.75-6.22,41.75c7.66-3.07,17.47-14.07,17.47-33.02
			C82.43,31.71,78.51,6,49.07,6z"/>
		<path class="st32" d="M59.02,34.87c0,0-11.05,5.54-20.81,4.43c-9.76-1.11-13.51,9-12.91,15.7l-3.26-14.9l5.89-11.79l16.78-8.64
			l15.86,0.73l7.52,6.53l6.39,7.94l4.49,5.23L76.8,56.18l-4.57,5.5C72.23,61.68,76.37,41.05,59.02,34.87z"/>
	</g>
</g>
<g class="st0">
	<g class="st1">
		<circle class="st33" cx="49" cy="49" r="49"/>
	</g>
	<g class="st1">
		<g>
			<line class="st34" x1="49" y1="98" x2="49" y2="103"/>
			<line class="st35" x1="49" y1="113" x2="49" y2="208"/>
			<line class="st34" x1="49" y1="213" x2="49" y2="218"/>
		</g>
	</g>
	<g class="st1">
		<path class="st36" d="M32.53,10h32.94c2.8,0,5.07,2.41,5.07,5.38v67.24c0,2.97-2.27,5.38-5.07,5.38H32.53
			c-2.8,0-5.07-2.41-5.07-5.38V15.38C27.47,12.41,29.73,10,32.53,10z"/>
		<g>
			<path class="st37" d="M66.73,15.38v9.41H31.27v-9.41c0-0.74,0.57-1.34,1.27-1.34h4.15c0.55,0,1.03,0.38,1.2,0.93l0.39,1.26
				c0.35,1.1,1.32,1.84,2.41,1.84h16.62c1.09,0,2.06-0.74,2.41-1.84l0.39-1.26c0.17-0.55,0.66-0.92,1.2-0.93h4.15
				C66.17,14.04,66.73,14.64,66.73,15.38z"/>
			<path class="st37" d="M66.73,70.52v12.1c0,0.74-0.57,1.34-1.27,1.34H32.53c-0.7,0-1.26-0.6-1.27-1.34v-12.1H66.73z"/>
		</g>
		<rect x="31.27" y="24.79" class="st38" width="35.47" height="45.72"/>
		<path class="st39" d="M55.33,15.38c-0.34,0-0.66-0.14-0.9-0.39c-0.24-0.25-0.37-0.6-0.37-0.95c0-0.36,0.14-0.7,0.37-0.95
			c0.51-0.5,1.29-0.5,1.8,0c0.49,0.53,0.49,1.38,0,1.91C55.99,15.23,55.67,15.37,55.33,15.38z"/>
		<path class="st40" d="M36.33,74.55h2.53c0.7,0,1.27,0.6,1.27,1.34v2.69c0,0.74-0.57,1.34-1.27,1.34h-2.53
			c-0.7,0-1.27-0.6-1.27-1.34V75.9C35.07,75.15,35.63,74.55,36.33,74.55z"/>
		<path class="st41" d="M43.93,74.55h2.53c0.7,0,1.27,0.6,1.27,1.34v2.69c0,0.74-0.57,1.34-1.27,1.34h-2.53
			c-0.7,0-1.27-0.6-1.27-1.34V75.9C42.67,75.15,43.23,74.55,43.93,74.55z"/>
		<path class="st40" d="M51.53,74.55h2.53c0.7,0,1.27,0.6,1.27,1.34v2.69c0,0.74-0.57,1.34-1.27,1.34h-2.53
			c-0.7,0-1.27-0.6-1.27-1.34V75.9C50.27,75.15,50.83,74.55,51.53,74.55z"/>
		<path class="st42" d="M59.13,74.55h2.53c0.7,0,1.27,0.6,1.27,1.34v2.69c0,0.74-0.57,1.34-1.27,1.34h-2.53
			c-0.7,0-1.27-0.6-1.27-1.34V75.9C57.87,75.15,58.43,74.55,59.13,74.55z"/>
		<path class="st41" d="M36.33,28.83h2.53c0.7,0,1.27,0.6,1.27,1.34v2.69c0,0.74-0.57,1.34-1.27,1.34h-2.53
			c-0.7,0-1.27-0.6-1.27-1.34v-2.69C35.07,29.43,35.63,28.83,36.33,28.83z"/>
		<path class="st43" d="M43.93,28.83h2.53c0.7,0,1.27,0.6,1.27,1.34v2.69c0,0.74-0.57,1.34-1.27,1.34h-2.53
			c-0.7,0-1.27-0.6-1.27-1.34v-2.69C42.67,29.43,43.23,28.83,43.93,28.83z"/>
		<path class="st42" d="M51.53,28.83h2.53c0.7,0,1.27,0.6,1.27,1.34v2.69c0,0.74-0.57,1.34-1.27,1.34h-2.53
			c-0.7,0-1.27-0.6-1.27-1.34v-2.69C50.27,29.43,50.83,28.83,51.53,28.83z"/>
		<path class="st41" d="M59.13,28.83h2.53c0.7,0,1.27,0.6,1.27,1.34v2.69c0,0.74-0.57,1.34-1.27,1.34h-2.53
			c-0.7,0-1.27-0.6-1.27-1.34v-2.69C57.87,29.43,58.43,28.83,59.13,28.83z"/>
		<path class="st43" d="M36.33,38.24h2.53c0.7,0,1.27,0.6,1.27,1.34v2.69c0,0.74-0.57,1.34-1.27,1.34h-2.53
			c-0.7,0-1.27-0.6-1.27-1.34v-2.69C35.07,38.84,35.63,38.24,36.33,38.24z"/>
		<path class="st42" d="M43.93,38.24h2.53c0.7,0,1.27,0.6,1.27,1.34v2.69c0,0.74-0.57,1.34-1.27,1.34h-2.53
			c-0.7,0-1.27-0.6-1.27-1.34v-2.69C42.67,38.84,43.23,38.24,43.93,38.24z"/>
		<path class="st40" d="M51.53,38.24h2.53c0.7,0,1.27,0.6,1.27,1.34v2.69c0,0.74-0.57,1.34-1.27,1.34h-2.53
			c-0.7,0-1.27-0.6-1.27-1.34v-2.69C50.27,38.84,50.83,38.24,51.53,38.24z"/>
		<path class="st41" d="M59.13,38.24h2.53c0.7,0,1.27,0.6,1.27,1.34v2.69c0,0.74-0.57,1.34-1.27,1.34h-2.53
			c-0.7,0-1.27-0.6-1.27-1.34v-2.69C57.87,38.84,58.43,38.24,59.13,38.24z"/>
		<path class="st42" d="M36.33,47.66h2.53c0.7,0,1.27,0.6,1.27,1.34v2.69c0,0.74-0.57,1.34-1.27,1.34h-2.53
			c-0.7,0-1.27-0.6-1.27-1.34V49C35.07,48.26,35.63,47.66,36.33,47.66z"/>
		<path class="st41" d="M43.93,47.66h2.53c0.7,0,1.27,0.6,1.27,1.34v2.69c0,0.74-0.57,1.34-1.27,1.34h-2.53
			c-0.7,0-1.27-0.6-1.27-1.34V49C42.67,48.26,43.23,47.66,43.93,47.66z"/>
		<path class="st40" d="M51.53,47.66h2.53c0.7,0,1.27,0.6,1.27,1.34v2.69c0,0.74-0.57,1.34-1.27,1.34h-2.53
			c-0.7,0-1.27-0.6-1.27-1.34V49C50.27,48.26,50.83,47.66,51.53,47.66z"/>
		<path class="st42" d="M59.13,47.66h2.53c0.7,0,1.27,0.6,1.27,1.34v2.69c0,0.74-0.57,1.34-1.27,1.34h-2.53
			c-0.7,0-1.27-0.6-1.27-1.34V49C57.87,48.26,58.43,47.66,59.13,47.66z"/>
		<path class="st40" d="M36.33,57.07h2.53c0.7,0,1.27,0.6,1.27,1.34v2.69c0,0.74-0.57,1.34-1.27,1.34h-2.53
			c-0.7,0-1.27-0.6-1.27-1.34v-2.69C35.07,57.67,35.63,57.07,36.33,57.07z"/>
		<path class="st41" d="M43.93,57.07h2.53c0.7,0,1.27,0.6,1.27,1.34v2.69c0,0.74-0.57,1.34-1.27,1.34h-2.53
			c-0.7,0-1.27-0.6-1.27-1.34v-2.69C42.67,57.67,43.23,57.07,43.93,57.07z"/>
		<path class="st42" d="M51.53,57.07h2.53c0.7,0,1.27,0.6,1.27,1.34v2.69c0,0.74-0.57,1.34-1.27,1.34h-2.53
			c-0.7,0-1.27-0.6-1.27-1.34v-2.69C50.27,57.67,50.83,57.07,51.53,57.07z"/>
		<path class="st43" d="M59.13,57.07h2.53c0.7,0,1.27,0.6,1.27,1.34v2.69c0,0.74-0.57,1.34-1.27,1.34h-2.53
			c-0.7,0-1.27-0.6-1.27-1.34v-2.69C57.87,57.67,58.43,57.07,59.13,57.07z"/>
		<path class="st42" d="M51.53,67.83h-5.07c-0.7,0-1.27-0.6-1.27-1.34s0.57-1.34,1.27-1.34h5.07c0.7,0,1.27,0.6,1.27,1.34
			S52.23,67.83,51.53,67.83z"/>
		<g>
			<path class="st44" d="M37.6,22.1h-2.53c-0.7,0-1.27-0.6-1.27-1.34c0-0.74,0.57-1.34,1.27-1.34h2.53c0.7,0,1.27,0.6,1.27,1.34
				C38.87,21.5,38.3,22.1,37.6,22.1z"/>
			<path class="st44" d="M62.93,22.1H60.4c-0.7,0-1.27-0.6-1.27-1.34c0-0.74,0.57-1.34,1.27-1.34h2.53c0.7,0,1.27,0.6,1.27,1.34
				C64.2,21.5,63.63,22.1,62.93,22.1z"/>
		</g>
	</g>
</g>
<g class="st0">
	<g class="st1">
		<circle class="st33" cx="49" cy="49" r="49"/>
	</g>
	<g class="st1">
		<g>
			<line class="st34" x1="49" y1="98" x2="49" y2="103"/>
			<line class="st35" x1="49" y1="113" x2="49" y2="208"/>
			<line class="st34" x1="49" y1="213" x2="49" y2="218"/>
		</g>
	</g>
	<g class="st1">
		<path class="st45" d="M46.97,43.88l-8.41-24.8L55,9.34l9.52,24.31v38.89L46.97,83.56V43.88z M44.03,21.81l6.64,17.68l9.45-5.75
			l-6.41-17.46L44.03,21.81z"/>
		<path class="st9" d="M44.03,21.78l9.67-5.51l6.41,17.49l-9.45,5.75L44.03,21.78z"/>
		<g>
			<path class="st46" d="M41.46,80.41V43.63l-7.49-21.41l4.6-3.16l8.41,24.82v39.68L41.46,80.41z"/>
			<path class="st46" d="M25.7,75.67l15.76-9.06v13.79l5.48,3.13l0.03,0.01l0.12-0.07l0.04-0.01l17.45-10.94v-4.07l7.75,4.86
				L46.97,88.69L25.7,75.67z"/>
		</g>
		<g>
			<path class="st47" d="M73.05,72.14l-7.11-4.46v-34c0-0.17-0.03-0.34-0.1-0.5L56.32,8.86c-0.15-0.37-0.45-0.66-0.83-0.79
				c-0.38-0.13-0.79-0.08-1.13,0.12l-16.49,9.7l-4.6,3.16c-0.55,0.33-0.8,1.01-0.58,1.62l7.41,21.19v21.97L25.02,74.5
				c-0.65,0.38-0.86,1.22-0.48,1.86c0.12,0.2,0.28,0.36,0.48,0.48l21.27,12.98c0.42,0.24,0.94,0.24,1.36,0l25.35-15.37
				c0.64-0.4,0.84-1.23,0.44-1.87c-0.11-0.18-0.26-0.33-0.44-0.44H73.05z M54.32,11.32l8.91,22.58v37.87L48.33,81.1V43.88
				c0-0.15-0.02-0.29-0.07-0.44l-8.05-23.78L54.32,11.32z M35.6,22.75l2.26-1.55l7.75,22.92v37.11l-2.79-1.61V43.57
				c0-0.15-0.03-0.3-0.08-0.45L35.6,22.75z M46.97,87.1L28.36,75.71l11.74-6.8v11.44c-0.04,0.55,0.26,1.06,0.75,1.31l5.44,3.09
				l0.2,0.08h0.11h0.22h0.14c0.11,0.01,0.23,0.01,0.34,0h0.12l0.22-0.1l17.7-11.04c0.4-0.25,0.64-0.69,0.64-1.16v-1.62l3.79,2.38
				L46.97,87.1z"/>
			<path class="st47" d="M50.21,40.85c0.38,0.13,0.81,0.09,1.16-0.12l9.45-5.75c0.56-0.34,0.8-1.02,0.57-1.63l-6.41-17.53
				c-0.27-0.7-1.06-1.05-1.76-0.78c-0.05,0.02-0.09,0.04-0.13,0.06l-9.68,5.51c-0.58,0.33-0.83,1.03-0.6,1.66l6.64,17.68
				C49.55,40.34,49.83,40.68,50.21,40.85z M52.93,18.3l5.44,14.96l-7.09,4.31l-5.64-15.1L52.93,18.3z"/>
			<path class="st47" d="M59.89,38.39l-8.57,5.28c-0.58,0.48-0.65,1.34-0.17,1.92c0.37,0.44,0.99,0.6,1.53,0.4l8.57-5.28
				c0.58-0.48,0.65-1.34,0.17-1.92C61.05,38.34,60.43,38.18,59.89,38.39L59.89,38.39z"/>
		</g>
	</g>
</g>
<g>
	<g>
		<circle class="st33" cx="49" cy="49" r="49"/>
	</g>
	<g>
		<g>
			<line class="st34" x1="49" y1="98" x2="49" y2="103"/>
			<line class="st35" x1="49" y1="113" x2="49" y2="208"/>
			<line class="st34" x1="49" y1="213" x2="49" y2="218"/>
		</g>
	</g>
	<g id="Page-1">
		<g>
			<path id="Shape" class="st48" d="M66.58,57.74c-2.78,7.29-9.77,12.1-17.58,12.1s-14.79-4.82-17.58-12.1l-3.94-4.03L22,57.2
				l-4.73,1.95c-0.58,0.25-0.85,0.91-0.61,1.49l3.48,8.45c0.24,0.58,0.91,0.86,1.49,0.62l5.86-2.42c1.75,2.5,3.92,4.67,6.41,6.41
				l-2.42,5.85c-0.12,0.28-0.12,0.6-0.01,0.88c0.12,0.28,0.34,0.5,0.63,0.62l8.43,3.5c0.28,0.12,0.6,0.13,0.88,0.01
				s0.51-0.34,0.62-0.63l2.42-5.85c3,0.53,6.07,0.53,9.06-0.01l2.43,5.86c0.11,0.28,0.34,0.51,0.62,0.62c0.28,0.12,0.6,0.11,0.88,0
				l8.43-3.5c0.28-0.11,0.51-0.33,0.63-0.62s0.11-0.6-0.01-0.88l-2.42-5.86c2.5-1.74,4.67-3.91,6.41-6.4l5.85,2.42
				c0.28,0.12,0.6,0.13,0.88,0.01c0.28-0.12,0.51-0.34,0.62-0.63l3.5-8.43c0.12-0.28,0.12-0.6,0-0.88s-0.34-0.51-0.62-0.62
				l-3.46-1.44h-0.01l-5.41-4.01L66.58,57.74z"/>
			<path class="st37" d="M88,46.31c0,6.31-5.12,11.43-11.43,11.43H26.14C17.23,57.74,10,50.52,10,41.6s7.23-16.14,16.14-16.14
				c0.42,0,0.82,0.01,1.22,0.05c2.77-7.31,9.77-12.15,17.58-12.16c7.82-0.01,14.83,4.81,17.61,12.12c0.19-0.01,0.38-0.01,0.56-0.01
				c5.98,0,11.32,3.77,13.31,9.41h0.13C82.88,34.88,88,40,88,46.31L88,46.31z"/>
			<path class="st49" d="M17.76,49.67c-0.41,0-0.79-0.18-1.05-0.5c-2.33-2.88-3.2-6.68-2.37-10.29s3.28-6.64,6.64-8.22
				c0.67-0.32,1.47-0.03,1.79,0.64s0.03,1.47-0.64,1.79c-3.29,1.56-5.39,4.87-5.4,8.51c-0.01,2.14,0.73,4.22,2.08,5.88
				c0.33,0.4,0.39,0.96,0.17,1.42S18.28,49.67,17.76,49.67z"/>
			<g>
				<path class="st50" d="M31.52,51.02c-0.43,0-0.84-0.21-1.09-0.56c-0.25-0.35-0.32-0.8-0.19-1.21l5.38-16.14
					c0.24-0.7,1-1.09,1.7-0.85c0.7,0.24,1.09,1,0.85,1.7L32.79,50.1C32.61,50.65,32.1,51.02,31.52,51.02L31.52,51.02z"/>
				<path class="st50" d="M42.28,51.02c-0.58,0-1.09-0.37-1.28-0.92l-5.38-16.14c-0.23-0.7,0.15-1.47,0.85-1.7
					c0.7-0.24,1.47,0.15,1.7,0.85l5.38,16.14c0.14,0.41,0.07,0.86-0.19,1.21C43.11,50.81,42.71,51.02,42.28,51.02L42.28,51.02z"/>
				<path class="st50" d="M40.03,44.29h-6.27c-0.74,0-1.34-0.6-1.34-1.34c0-0.74,0.6-1.34,1.34-1.34h6.27c0.74,0,1.34,0.6,1.34,1.34
					C41.37,43.69,40.77,44.29,40.03,44.29z"/>
				<path class="st50" d="M46.31,51.02c-0.74,0-1.34-0.6-1.34-1.34V33.53c0-0.74,0.6-1.34,1.34-1.34s1.34,0.6,1.34,1.34v16.14
					C47.66,50.42,47.05,51.02,46.31,51.02z"/>
				<path class="st50" d="M51.69,42.95h-5.38c-0.74,0-1.34-0.6-1.34-1.34v-8.07c0-0.74,0.6-1.34,1.34-1.34h5.38
					c2.97,0,5.38,2.41,5.38,5.38C57.07,40.54,54.66,42.95,51.69,42.95z M47.66,40.26h4.03c1.49,0,2.69-1.2,2.69-2.69
					c0-1.49-1.2-2.69-2.69-2.69h-4.03V40.26z"/>
				<path class="st50" d="M62.45,51.02c-0.74,0-1.34-0.6-1.34-1.34V33.53c0-0.74,0.6-1.34,1.34-1.34c0.74,0,1.34,0.6,1.34,1.34
					v16.14C63.79,50.42,63.19,51.02,62.45,51.02z"/>
				<path class="st50" d="M66.48,34.88h-8.07c-0.74,0-1.34-0.6-1.34-1.34c0-0.74,0.6-1.34,1.34-1.34h8.07c0.74,0,1.34,0.6,1.34,1.34
					C67.83,34.28,67.23,34.88,66.48,34.88z"/>
				<path class="st50" d="M66.48,51.02h-8.07c-0.74,0-1.34-0.6-1.34-1.34c0-0.74,0.6-1.34,1.34-1.34h8.07c0.74,0,1.34,0.6,1.34,1.34
					C67.83,50.42,67.23,51.02,66.48,51.02z"/>
			</g>
			<path class="st49" d="M34.21,28.16c-0.43,0-0.84-0.21-1.09-0.56c-0.25-0.35-0.32-0.8-0.19-1.21c2.96-8.89,10.38-8.99,10.69-8.99
				c0.74,0,1.35,0.6,1.35,1.34s-0.6,1.35-1.34,1.35c-0.26,0-5.82,0.17-8.14,7.15C35.3,27.79,34.79,28.16,34.21,28.16L34.21,28.16z"
				/>
		</g>
	</g>
</g>
</svg>
