<?xml version="1.0" encoding="utf-8"?>
<!-- Generator: Adobe Illustrator 23.0.0, SVG Export Plug-In . SVG Version: 6.00 Build 0)  -->
<svg version="1.1" id="Layer_1" xmlns="http://www.w3.org/2000/svg" xmlns:xlink="http://www.w3.org/1999/xlink" x="0px" y="0px"
	 viewBox="0 0 98 218" style="enable-background:new 0 0 98 218;" xml:space="preserve">
<style type="text/css">
	.st0{display:none;}
	.st1{display:inline;}
	.st2{fill:#FF9933;}
	.st3{fill:none;stroke:#FF9933;stroke-width:7;stroke-miterlimit:10;}
	.st4{fill:none;stroke:#FF9933;stroke-width:7;stroke-miterlimit:10;stroke-dasharray:10,10;}
	.st5{fill:#543C2A;}
	.st6{fill:#FDCC9B;}
	.st7{fill:#FCBC85;}
	.st8{fill:#3B2519;}
	.st9{fill:#FFFFFF;}
	.st10{fill:#684B37;}
	.st11{fill:#F7945E;}
	.st12{fill:#F9AA8D;}
	.st13{fill:#8617AF;}
	.st14{fill:#671389;}
	.st15{fill:#432B1F;}
	.st16{fill:#51362A;}
	.st17{fill:#694B74;}
	.st18{fill:#563C60;}
</style>
<g class="st0">
	<g class="st1">
		<circle class="st2" cx="49" cy="49" r="49"/>
	</g>
	<g class="st1">
		<g>
			<line class="st3" x1="49" y1="98" x2="49" y2="103"/>
			<line class="st4" x1="49" y1="113" x2="49" y2="208"/>
			<line class="st3" x1="49" y1="213" x2="49" y2="218"/>
		</g>
	</g>
	<g class="st1">
		<path class="st5" d="M49,35.56c0,0-32.29,0.24-32.41,16.46C16.5,63.36,19,79.91,20.52,88.86c3.69,2.64,7.75,4.78,12.1,6.32H49
			h16.38c4.35-1.54,8.41-3.68,12.1-6.32c1.52-8.96,4.03-25.51,3.94-36.84C81.29,35.8,49,35.56,49,35.56z"/>
		<g>
			<g>
				<rect x="42.33" y="75.19" class="st6" width="13.34" height="14.94"/>
				<path class="st7" d="M42.33,76.95c0,0,5.61,3.57,13.34,2.75v-4.51H42.33V76.95z"/>
				<ellipse class="st7" cx="23.09" cy="52.02" rx="6.51" ry="7.43"/>
				<ellipse class="st7" cx="74.9" cy="52.02" rx="6.51" ry="7.43"/>
				<path class="st6" d="M74.88,37.84c0-10.94-8-18.94-25.88-18.94s-25.88,8-25.88,18.94S21.25,77.59,49,77.59
					C76.75,77.59,74.88,48.78,74.88,37.84z"/>
				<g>
					<g>
						<ellipse class="st8" cx="36.39" cy="50.24" rx="2.8" ry="3.07"/>
						<circle class="st9" cx="35.17" cy="48.89" r="0.84"/>
					</g>
					<path class="st10" d="M31.91,43.63c1.32,0.51,3.45-1.72,8.32,0.22c0.89,0.35,1.42-3.03-3.8-3.03
						C31.91,40.82,31.11,43.32,31.91,43.63z"/>
					<g>
						<ellipse class="st8" cx="61.95" cy="50.24" rx="2.8" ry="3.07"/>
						<circle class="st9" cx="60.73" cy="48.89" r="0.84"/>
					</g>
					<path class="st10" d="M66.09,43.63c-1.32,0.51-3.45-1.72-8.32,0.22c-0.89,0.35-1.42-3.03,3.8-3.03
						C66.09,40.82,66.89,43.32,66.09,43.63z"/>
				</g>
				<path class="st7" d="M49,61.04c-2.77,0-4.44-2.07-4.44-1.07c0,1,0.8,2.9,4.44,2.9c3.64,0,4.44-1.9,4.44-2.9
					C53.44,58.97,51.77,61.04,49,61.04z"/>
				<path class="st7" d="M49,70.23c-0.96,0-1.53-0.71-1.53-0.37c0,0.35,0.28,1,1.53,1c1.26,0,1.53-0.66,1.53-1
					C50.53,69.52,49.96,70.23,49,70.23z"/>
				<path class="st11" d="M49,67.69c-4.39,0-7.03-1.79-7.03-1.33s1.27,2.23,7.03,2.23s7.03-1.78,7.03-2.23
					C56.03,65.9,53.39,67.69,49,67.69z"/>
			</g>
			<circle class="st12" cx="32.79" cy="60.05" r="3.8"/>
			<circle class="st12" cx="65.67" cy="60.05" r="3.8"/>
		</g>
		<path class="st13" d="M49,81.19c-10.44,0-20.19,4.63-25.36,9.74C31.03,95.42,39.72,98,49,98c9.28,0,17.97-2.58,25.36-7.07
			C69.19,85.83,59.44,81.19,49,81.19z"/>
		<path class="st14" d="M43.43,81.62c-0.09,0.01-0.17,0.03-0.26,0.04c-1.8,0.29-3.55,0.69-5.24,1.2L49,98v-8.4l-4.99-8.04
			C43.82,81.58,43.62,81.6,43.43,81.62z"/>
		<path class="st14" d="M54.57,81.62c0.09,0.01,0.17,0.03,0.26,0.04c1.8,0.29,3.55,0.69,5.24,1.2L49,98v-8.4l4.99-8.04
			C54.18,81.58,54.38,81.6,54.57,81.62z"/>
		<path class="st10" d="M49,5.54c-30.15,0-33.68,21.32-32.41,46.48C17.85,77.18,39.2,89.6,39.2,89.6s-23.92-34.23-4.02-64.24
			c0,0-3.74,6.42-3.53,11.81c0,0,4.69-1.6,17.36-1.6c12.67,0,17.36,1.6,17.36,1.6c0.2-5.38-3.53-11.81-3.53-11.81
			C82.72,55.37,58.8,89.6,58.8,89.6s21.34-12.42,22.61-37.57C82.68,26.87,79.15,5.54,49,5.54z"/>
		<path class="st6" d="M42.33,81.77L49,92.85l6.67-11.08C55.67,81.77,48.75,79.25,42.33,81.77z"/>
	</g>
</g>
<g>
	<g>
		<circle class="st2" cx="49" cy="49" r="49"/>
	</g>
	<g>
		<g>
			<line class="st3" x1="49" y1="98" x2="49" y2="103"/>
			<line class="st4" x1="49" y1="113" x2="49" y2="208"/>
			<line class="st3" x1="49" y1="213" x2="49" y2="218"/>
		</g>
	</g>
	<g>
		<path class="st15" d="M20.06,70.69c1.79,4.99,1,12.33-0.03,17.82c4.5,3.3,9.58,5.85,15.06,7.47h12.09V45.63l-31.76,6.09
			C15.43,51.72,17.18,62.64,20.06,70.69z"/>
		<path class="st15" d="M78.97,51.72l-31.76-6.09v50.35h15.69c4.23-1.25,8.23-3.06,11.9-5.33c-1.21-5.58-2.5-14.29-0.47-19.96
			C77.23,62.64,78.97,51.72,78.97,51.72z"/>
		<g>
			<g>
				<rect x="40.47" y="75.04" class="st6" width="13.43" height="15.04"/>
				<path class="st7" d="M40.47,76.81c0,0,5.65,3.6,13.43,2.76v-4.54H40.47V76.81z"/>
				<ellipse class="st7" cx="21.11" cy="51.72" rx="6.55" ry="7.48"/>
				<ellipse class="st7" cx="73.26" cy="51.72" rx="6.55" ry="7.48"/>
				<path class="st6" d="M73.24,37.44c0-11.01-8.06-19.07-26.05-19.07c-17.99,0-26.05,8.06-26.05,19.07s-1.88,40.01,26.05,40.01
					C75.12,77.46,73.24,48.45,73.24,37.44z"/>
				<g>
					<g>
						<ellipse class="st8" cx="34.5" cy="49.93" rx="2.82" ry="3.09"/>
						<circle class="st9" cx="33.27" cy="48.56" r="0.84"/>
					</g>
					<path class="st16" d="M29.99,43.27c1.33,0.51,3.47-1.73,8.38,0.22c0.89,0.36,1.43-3.05-3.83-3.05
						C29.99,40.44,29.18,42.96,29.99,43.27z"/>
					<g>
						<ellipse class="st8" cx="60.22" cy="49.93" rx="2.82" ry="3.09"/>
						<circle class="st9" cx="58.99" cy="48.56" r="0.84"/>
					</g>
					<path class="st16" d="M64.39,43.27c-1.33,0.51-3.47-1.73-8.38,0.22c-0.89,0.36-1.43-3.05,3.83-3.05
						C64.39,40.44,65.19,42.96,64.39,43.27z"/>
				</g>
				<path class="st7" d="M47.19,60.79c-2.79,0-4.46-2.08-4.46-1.07c0,1.01,0.81,2.92,4.46,2.92c3.66,0,4.46-1.91,4.46-2.92
					C51.65,58.71,49.97,60.79,47.19,60.79z"/>
				<path class="st7" d="M47.19,70.05c-0.96,0-1.54-0.72-1.54-0.37c0,0.35,0.28,1.01,1.54,1.01c1.27,0,1.54-0.66,1.54-1.01
					C48.73,69.33,48.15,70.05,47.19,70.05z"/>
				<path class="st11" d="M47.19,67.49c-4.42,0-7.08-1.8-7.08-1.34c0,0.46,1.28,2.25,7.08,2.25s7.08-1.79,7.08-2.25
					C54.26,65.69,51.6,67.49,47.19,67.49z"/>
			</g>
			<circle class="st12" cx="30.87" cy="59.8" r="3.83"/>
			<circle class="st12" cx="63.97" cy="59.8" r="3.83"/>
		</g>
		<path class="st17" d="M47.19,81.08c-10.01,0-19.4,4.23-24.76,9.08C30.08,95.11,39.2,98,49,98c8.86,0,17.17-2.36,24.34-6.48
			C68.32,86.14,58.13,81.08,47.19,81.08z"/>
		<path class="st18" d="M47.1,81.08c-3.32,0-6.72,0.46-10.02,1.24c0.02,0.03,3.66,4.67,10.02,4.67c5.89,0,9.81-3.97,10.38-4.58
			C54.07,81.57,50.54,81.08,47.1,81.08z"/>
		<path class="st6" d="M40.47,81.67c0,0,1.96,2.44,6.71,2.44s6.71-2.44,6.71-2.44S46.93,79.13,40.47,81.67z"/>
		<path class="st16" d="M70.82,14.21C53.9-5.93,21.67,2.13,14.56,29.92c-7.12,27.8,5.5,40.77,5.5,40.77
			c-4.84-16.38,6.45-33.32,16.11-33.52c9.67-0.2,24.98-5.64,24.98-5.64s2.57,13.07,10.88,17.88c6.24,3.61,3.87,14.22,2.26,21.28
			C80.33,68.39,98.21,22.47,70.82,14.21z"/>
	</g>
</g>
</svg>
