<?xml version="1.0" encoding="utf-8"?>
<!-- Generator: Adobe Illustrator 23.0.0, SVG Export Plug-In . SVG Version: 6.00 Build 0)  -->
<svg version="1.1" id="Layer_1" xmlns="http://www.w3.org/2000/svg" xmlns:xlink="http://www.w3.org/1999/xlink" x="0px" y="0px"
	 viewBox="0 0 98 218" style="enable-background:new 0 0 98 218;" xml:space="preserve">
<style type="text/css">
	.st0{fill:#FF9933;}
	.st1{fill:none;stroke:#FF9933;stroke-width:7;stroke-miterlimit:10;}
	.st2{fill:none;stroke:#FF9933;stroke-width:7;stroke-miterlimit:10;stroke-dasharray:10,10;}
	.st3{fill:#543C2A;}
	.st4{fill:#FDCC9B;}
	.st5{fill:#FCBC85;}
	.st6{fill:#3B2519;}
	.st7{fill:#FFFFFF;}
	.st8{fill:#684B37;}
	.st9{fill:#F7945E;}
	.st10{fill:#F9AA8D;}
	.st11{fill:#8617AF;}
	.st12{fill:#671389;}
</style>
<g>
	<g>
		<circle class="st0" cx="49" cy="49" r="49"/>
	</g>
	<g>
		<g>
			<line class="st1" x1="49" y1="98" x2="49" y2="103"/>
			<line class="st2" x1="49" y1="113" x2="49" y2="208"/>
			<line class="st1" x1="49" y1="213" x2="49" y2="218"/>
		</g>
	</g>
	<g>
		<path class="st3" d="M49,35.56c0,0-32.29,0.24-32.41,16.46C16.5,63.36,19,79.91,20.52,88.86c3.69,2.64,7.75,4.78,12.1,6.32H49
			h16.38c4.35-1.54,8.41-3.68,12.1-6.32c1.52-8.96,4.03-25.51,3.94-36.84C81.29,35.8,49,35.56,49,35.56z"/>
		<g>
			<g>
				<rect x="42.33" y="75.19" class="st4" width="13.34" height="14.94"/>
				<path class="st5" d="M42.33,76.95c0,0,5.61,3.57,13.34,2.75v-4.51H42.33V76.95z"/>
				<ellipse class="st5" cx="23.09" cy="52.02" rx="6.51" ry="7.43"/>
				<ellipse class="st5" cx="74.9" cy="52.02" rx="6.51" ry="7.43"/>
				<path class="st4" d="M74.88,37.84c0-10.94-8-18.94-25.88-18.94s-25.88,8-25.88,18.94S21.25,77.59,49,77.59
					C76.75,77.59,74.88,48.78,74.88,37.84z"/>
				<g>
					<g>
						<ellipse class="st6" cx="36.39" cy="50.24" rx="2.8" ry="3.07"/>
						<circle class="st7" cx="35.17" cy="48.89" r="0.84"/>
					</g>
					<path class="st8" d="M31.91,43.63c1.32,0.51,3.45-1.72,8.32,0.22c0.89,0.35,1.42-3.03-3.8-3.03
						C31.91,40.82,31.11,43.32,31.91,43.63z"/>
					<g>
						<ellipse class="st6" cx="61.95" cy="50.24" rx="2.8" ry="3.07"/>
						<circle class="st7" cx="60.73" cy="48.89" r="0.84"/>
					</g>
					<path class="st8" d="M66.09,43.63c-1.32,0.51-3.45-1.72-8.32,0.22c-0.89,0.35-1.42-3.03,3.8-3.03
						C66.09,40.82,66.89,43.32,66.09,43.63z"/>
				</g>
				<path class="st5" d="M49,61.04c-2.77,0-4.44-2.07-4.44-1.07c0,1,0.8,2.9,4.44,2.9c3.64,0,4.44-1.9,4.44-2.9
					C53.44,58.97,51.77,61.04,49,61.04z"/>
				<path class="st5" d="M49,70.23c-0.96,0-1.53-0.71-1.53-0.37c0,0.35,0.28,1,1.53,1c1.26,0,1.53-0.66,1.53-1
					C50.53,69.52,49.96,70.23,49,70.23z"/>
				<path class="st9" d="M49,67.69c-4.39,0-7.03-1.79-7.03-1.33s1.27,2.23,7.03,2.23s7.03-1.78,7.03-2.23
					C56.03,65.9,53.39,67.69,49,67.69z"/>
			</g>
			<circle class="st10" cx="32.79" cy="60.05" r="3.8"/>
			<circle class="st10" cx="65.67" cy="60.05" r="3.8"/>
		</g>
		<path class="st11" d="M49,81.19c-10.44,0-20.19,4.63-25.36,9.74C31.03,95.42,39.72,98,49,98c9.28,0,17.97-2.58,25.36-7.07
			C69.19,85.83,59.44,81.19,49,81.19z"/>
		<path class="st12" d="M43.43,81.62c-0.09,0.01-0.17,0.03-0.26,0.04c-1.8,0.29-3.55,0.69-5.24,1.2L49,98v-8.4l-4.99-8.04
			C43.82,81.58,43.62,81.6,43.43,81.62z"/>
		<path class="st12" d="M54.57,81.62c0.09,0.01,0.17,0.03,0.26,0.04c1.8,0.29,3.55,0.69,5.24,1.2L49,98v-8.4l4.99-8.04
			C54.18,81.58,54.38,81.6,54.57,81.62z"/>
		<path class="st8" d="M49,5.54c-30.15,0-33.68,21.32-32.41,46.48C17.85,77.18,39.2,89.6,39.2,89.6s-23.92-34.23-4.02-64.24
			c0,0-3.74,6.42-3.53,11.81c0,0,4.69-1.6,17.36-1.6c12.67,0,17.36,1.6,17.36,1.6c0.2-5.38-3.53-11.81-3.53-11.81
			C82.72,55.37,58.8,89.6,58.8,89.6s21.34-12.42,22.61-37.57C82.68,26.87,79.15,5.54,49,5.54z"/>
		<path class="st4" d="M42.33,81.77L49,92.85l6.67-11.08C55.67,81.77,48.75,79.25,42.33,81.77z"/>
	</g>
</g>
</svg>
