<?xml version="1.0" encoding="utf-8"?>
<!-- Generator: Adobe Illustrator 23.0.0, SVG Export Plug-In . SVG Version: 6.00 Build 0)  -->
<svg version="1.1" id="Layer_1" xmlns="http://www.w3.org/2000/svg" xmlns:xlink="http://www.w3.org/1999/xlink" x="0px" y="0px"
	 viewBox="0 0 98 218" style="enable-background:new 0 0 98 218;" xml:space="preserve">
<style type="text/css">
	.st0{display:none;}
	.st1{display:inline;}
	.st2{fill:#FF9933;}
	.st3{fill:none;stroke:#FF9933;stroke-width:7;stroke-miterlimit:10;}
	.st4{fill:none;stroke:#FF9933;stroke-width:7;stroke-miterlimit:10;stroke-dasharray:10,10;}
	.st5{fill:#543C2A;}
	.st6{fill:#FDCC9B;}
	.st7{fill:#FCBC85;}
	.st8{fill:#3B2519;}
	.st9{fill:#FFFFFF;}
	.st10{fill:#684B37;}
	.st11{fill:#F7945E;}
	.st12{fill:#F9AA8D;}
	.st13{fill:#8617AF;}
	.st14{fill:#671389;}
	.st15{fill:#432B1F;}
	.st16{fill:#51362A;}
	.st17{fill:#694B74;}
	.st18{fill:#563C60;}
	.st19{fill:#B56A18;}
	.st20{fill:#F36C21;}
	.st21{fill:#86461B;}
	.st22{fill:#3D271E;}
	.st23{fill:#BF805A;}
	.st24{fill:#744A25;}
	.st25{fill:#573514;}
</style>
<g class="st0">
	<g class="st1">
		<circle class="st2" cx="49" cy="49" r="49"/>
	</g>
	<g class="st1">
		<g>
			<line class="st3" x1="49" y1="98" x2="49" y2="103"/>
			<line class="st4" x1="49" y1="113" x2="49" y2="208"/>
			<line class="st3" x1="49" y1="213" x2="49" y2="218"/>
		</g>
	</g>
	<g class="st1">
		<path class="st5" d="M49,35.56c0,0-32.29,0.24-32.41,16.46C16.5,63.36,19,79.91,20.52,88.86c3.69,2.64,7.75,4.78,12.1,6.32H49
			h16.38c4.35-1.54,8.41-3.68,12.1-6.32c1.52-8.96,4.03-25.51,3.94-36.84C81.29,35.8,49,35.56,49,35.56z"/>
		<g>
			<g>
				<rect x="42.33" y="75.19" class="st6" width="13.34" height="14.94"/>
				<path class="st7" d="M42.33,76.95c0,0,5.61,3.57,13.34,2.75v-4.51H42.33V76.95z"/>
				<ellipse class="st7" cx="23.09" cy="52.02" rx="6.51" ry="7.43"/>
				<ellipse class="st7" cx="74.9" cy="52.02" rx="6.51" ry="7.43"/>
				<path class="st6" d="M74.88,37.84c0-10.94-8-18.94-25.88-18.94s-25.88,8-25.88,18.94S21.25,77.59,49,77.59
					C76.75,77.59,74.88,48.78,74.88,37.84z"/>
				<g>
					<g>
						<ellipse class="st8" cx="36.39" cy="50.24" rx="2.8" ry="3.07"/>
						<circle class="st9" cx="35.17" cy="48.89" r="0.84"/>
					</g>
					<path class="st10" d="M31.91,43.63c1.32,0.51,3.45-1.72,8.32,0.22c0.89,0.35,1.42-3.03-3.8-3.03
						C31.91,40.82,31.11,43.32,31.91,43.63z"/>
					<g>
						<ellipse class="st8" cx="61.95" cy="50.24" rx="2.8" ry="3.07"/>
						<circle class="st9" cx="60.73" cy="48.89" r="0.84"/>
					</g>
					<path class="st10" d="M66.09,43.63c-1.32,0.51-3.45-1.72-8.32,0.22c-0.89,0.35-1.42-3.03,3.8-3.03
						C66.09,40.82,66.89,43.32,66.09,43.63z"/>
				</g>
				<path class="st7" d="M49,61.04c-2.77,0-4.44-2.07-4.44-1.07c0,1,0.8,2.9,4.44,2.9c3.64,0,4.44-1.9,4.44-2.9
					C53.44,58.97,51.77,61.04,49,61.04z"/>
				<path class="st7" d="M49,70.23c-0.96,0-1.53-0.71-1.53-0.37c0,0.35,0.28,1,1.53,1c1.26,0,1.53-0.66,1.53-1
					C50.53,69.52,49.96,70.23,49,70.23z"/>
				<path class="st11" d="M49,67.69c-4.39,0-7.03-1.79-7.03-1.33s1.27,2.23,7.03,2.23s7.03-1.78,7.03-2.23
					C56.03,65.9,53.39,67.69,49,67.69z"/>
			</g>
			<circle class="st12" cx="32.79" cy="60.05" r="3.8"/>
			<circle class="st12" cx="65.67" cy="60.05" r="3.8"/>
		</g>
		<path class="st13" d="M49,81.19c-10.44,0-20.19,4.63-25.36,9.74C31.03,95.42,39.72,98,49,98c9.28,0,17.97-2.58,25.36-7.07
			C69.19,85.83,59.44,81.19,49,81.19z"/>
		<path class="st14" d="M43.43,81.62c-0.09,0.01-0.17,0.03-0.26,0.04c-1.8,0.29-3.55,0.69-5.24,1.2L49,98v-8.4l-4.99-8.04
			C43.82,81.58,43.62,81.6,43.43,81.62z"/>
		<path class="st14" d="M54.57,81.62c0.09,0.01,0.17,0.03,0.26,0.04c1.8,0.29,3.55,0.69,5.24,1.2L49,98v-8.4l4.99-8.04
			C54.18,81.58,54.38,81.6,54.57,81.62z"/>
		<path class="st10" d="M49,5.54c-30.15,0-33.68,21.32-32.41,46.48C17.85,77.18,39.2,89.6,39.2,89.6s-23.92-34.23-4.02-64.24
			c0,0-3.74,6.42-3.53,11.81c0,0,4.69-1.6,17.36-1.6c12.67,0,17.36,1.6,17.36,1.6c0.2-5.38-3.53-11.81-3.53-11.81
			C82.72,55.37,58.8,89.6,58.8,89.6s21.34-12.42,22.61-37.57C82.68,26.87,79.15,5.54,49,5.54z"/>
		<path class="st6" d="M42.33,81.77L49,92.85l6.67-11.08C55.67,81.77,48.75,79.25,42.33,81.77z"/>
	</g>
</g>
<g class="st0">
	<g class="st1">
		<circle class="st2" cx="49" cy="49" r="49"/>
	</g>
	<g class="st1">
		<g>
			<line class="st3" x1="49" y1="98" x2="49" y2="103"/>
			<line class="st4" x1="49" y1="113" x2="49" y2="208"/>
			<line class="st3" x1="49" y1="213" x2="49" y2="218"/>
		</g>
	</g>
	<g class="st1">
		<path class="st15" d="M20.06,70.69c1.79,4.99,1,12.33-0.03,17.82c4.5,3.3,9.58,5.85,15.06,7.47h12.09V45.63l-31.76,6.09
			C15.43,51.72,17.18,62.64,20.06,70.69z"/>
		<path class="st15" d="M78.97,51.72l-31.76-6.09v50.35h15.69c4.23-1.25,8.23-3.06,11.9-5.33c-1.21-5.58-2.5-14.29-0.47-19.96
			C77.23,62.64,78.97,51.72,78.97,51.72z"/>
		<g>
			<g>
				<rect x="40.47" y="75.04" class="st6" width="13.43" height="15.04"/>
				<path class="st7" d="M40.47,76.81c0,0,5.65,3.6,13.43,2.76v-4.54H40.47V76.81z"/>
				<ellipse class="st7" cx="21.11" cy="51.72" rx="6.55" ry="7.48"/>
				<ellipse class="st7" cx="73.26" cy="51.72" rx="6.55" ry="7.48"/>
				<path class="st6" d="M73.24,37.44c0-11.01-8.06-19.07-26.05-19.07c-17.99,0-26.05,8.06-26.05,19.07s-1.88,40.01,26.05,40.01
					C75.12,77.46,73.24,48.45,73.24,37.44z"/>
				<g>
					<g>
						<ellipse class="st8" cx="34.5" cy="49.93" rx="2.82" ry="3.09"/>
						<circle class="st9" cx="33.27" cy="48.56" r="0.84"/>
					</g>
					<path class="st16" d="M29.99,43.27c1.33,0.51,3.47-1.73,8.38,0.22c0.89,0.36,1.43-3.05-3.83-3.05
						C29.99,40.44,29.18,42.96,29.99,43.27z"/>
					<g>
						<ellipse class="st8" cx="60.22" cy="49.93" rx="2.82" ry="3.09"/>
						<circle class="st9" cx="58.99" cy="48.56" r="0.84"/>
					</g>
					<path class="st16" d="M64.39,43.27c-1.33,0.51-3.47-1.73-8.38,0.22c-0.89,0.36-1.43-3.05,3.83-3.05
						C64.39,40.44,65.19,42.96,64.39,43.27z"/>
				</g>
				<path class="st7" d="M47.19,60.79c-2.79,0-4.46-2.08-4.46-1.07c0,1.01,0.81,2.92,4.46,2.92c3.66,0,4.46-1.91,4.46-2.92
					C51.65,58.71,49.97,60.79,47.19,60.79z"/>
				<path class="st7" d="M47.19,70.05c-0.96,0-1.54-0.72-1.54-0.37c0,0.35,0.28,1.01,1.54,1.01c1.27,0,1.54-0.66,1.54-1.01
					C48.73,69.33,48.15,70.05,47.19,70.05z"/>
				<path class="st11" d="M47.19,67.49c-4.42,0-7.08-1.8-7.08-1.34c0,0.46,1.28,2.25,7.08,2.25s7.08-1.79,7.08-2.25
					C54.26,65.69,51.6,67.49,47.19,67.49z"/>
			</g>
			<circle class="st12" cx="30.87" cy="59.8" r="3.83"/>
			<circle class="st12" cx="63.97" cy="59.8" r="3.83"/>
		</g>
		<path class="st17" d="M47.19,81.08c-10.01,0-19.4,4.23-24.76,9.08C30.08,95.11,39.2,98,49,98c8.86,0,17.17-2.36,24.34-6.48
			C68.32,86.14,58.13,81.08,47.19,81.08z"/>
		<path class="st18" d="M47.1,81.08c-3.32,0-6.72,0.46-10.02,1.24c0.02,0.03,3.66,4.67,10.02,4.67c5.89,0,9.81-3.97,10.38-4.58
			C54.07,81.57,50.54,81.08,47.1,81.08z"/>
		<path class="st6" d="M40.47,81.67c0,0,1.96,2.44,6.71,2.44s6.71-2.44,6.71-2.44S46.93,79.13,40.47,81.67z"/>
		<path class="st16" d="M70.82,14.21C53.9-5.93,21.67,2.13,14.56,29.92c-7.12,27.8,5.5,40.77,5.5,40.77
			c-4.84-16.38,6.45-33.32,16.11-33.52c9.67-0.2,24.98-5.64,24.98-5.64s2.57,13.07,10.88,17.88c6.24,3.61,3.87,14.22,2.26,21.28
			C80.33,68.39,98.21,22.47,70.82,14.21z"/>
	</g>
</g>
<g class="st0">
	<g class="st1">
		<circle class="st2" cx="49" cy="49" r="49"/>
	</g>
	<g class="st1">
		<g>
			<line class="st3" x1="49" y1="98" x2="49" y2="103"/>
			<line class="st4" x1="49" y1="113" x2="49" y2="208"/>
			<line class="st3" x1="49" y1="213" x2="49" y2="218"/>
		</g>
	</g>
	<g class="st1">
		<g>
			<rect x="42.04" y="74.2" class="st6" width="13.92" height="15.59"/>
			<path class="st7" d="M42.04,76.03c0,0,5.86,3.73,13.92,2.87v-4.7H42.04V76.03z"/>
			<ellipse class="st7" cx="21.97" cy="50.02" rx="6.79" ry="7.75"/>
			<ellipse class="st7" cx="76.03" cy="50.02" rx="6.79" ry="7.75"/>
			<path class="st6" d="M76.01,35.22c0-11.41-8.35-19.77-27.01-19.77S21.99,23.8,21.99,35.22S20.05,76.7,49,76.7
				S76.01,46.63,76.01,35.22z"/>
			<g>
				<g>
					<ellipse class="st8" cx="35.85" cy="48.17" rx="2.92" ry="3.2"/>
					<circle class="st9" cx="34.57" cy="46.75" r="0.87"/>
				</g>
				<path class="st16" d="M31.17,40.23c1.38,0.69,3.6-2.35,8.68,0.3c0.93,0.48,1.48-4.12-3.97-4.12
					C31.17,36.4,30.33,39.81,31.17,40.23z"/>
				<g>
					<ellipse class="st8" cx="62.51" cy="48.17" rx="2.92" ry="3.2"/>
					<circle class="st9" cx="61.24" cy="46.75" r="0.87"/>
				</g>
				<path class="st16" d="M66.83,40.23c-1.38,0.69-3.6-2.35-8.68,0.3c-0.93,0.48-1.48-4.12,3.97-4.12
					C66.83,36.4,67.67,39.81,66.83,40.23z"/>
			</g>
			<path class="st7" d="M49,59.43c-2.89,0-4.63-2.16-4.63-1.11c0,1.04,0.84,3.03,4.63,3.03s4.63-1.98,4.63-3.03
				S51.89,59.43,49,59.43z"/>
			<path class="st7" d="M49,69.03c-1,0-1.6-0.75-1.6-0.39s0.29,1.05,1.6,1.05s1.6-0.69,1.6-1.05S50,69.03,49,69.03z"/>
			<path class="st11" d="M49,66.37c-4.58,0-7.34-1.86-7.34-1.39c0,0.47,1.32,2.33,7.34,2.33s7.34-1.86,7.34-2.33
				C56.34,64.5,53.58,66.37,49,66.37z"/>
		</g>
		<path class="st19" d="M49,80.46c-10.13,0-20.97,4.18-27.58,9.04C29.28,94.86,38.77,98,49,98s19.72-3.14,27.58-8.5
			C69.97,84.64,59.13,80.46,49,80.46z"/>
		<path class="st20" d="M49,80.46c-3.4,0-6.89,0.48-10.27,1.29c0.02,0.03,3.75,4.84,10.27,4.84c6.04,0,10.06-4.12,10.64-4.75
			C56.14,80.97,52.53,80.46,49,80.46z"/>
		<path class="st6" d="M42.04,81.07c0,0,2.04,2.53,6.96,2.53s6.96-2.53,6.96-2.53S48.74,78.44,42.04,81.07z"/>
		<path class="st16" d="M71.2,13.02c0,0-10.02-12.74-30.85-7.93C19.52,9.88,17.96,22.41,18.58,34.6c0.63,12.19,2.3,19.34,4.27,18.46
			c1.98-0.88,0.95-8.93,1.16-10.79c0.21-1.86,2.09-10.25,14.76-9c12.67,1.25,23.34-3.34,23.34-3.34s4.3,5.43,7.13,6.47
			c5.65,2.08,3.8,15.94,6.01,15.94S88.32,20.32,71.2,13.02z"/>
	</g>
</g>
<g>
	<g>
		<circle class="st2" cx="49" cy="49" r="49"/>
	</g>
	<g>
		<g>
			<line class="st3" x1="49" y1="98" x2="49" y2="103"/>
			<line class="st4" x1="49" y1="113" x2="49" y2="208"/>
			<line class="st3" x1="49" y1="213" x2="49" y2="218"/>
		</g>
	</g>
	<g>
		<g>
			<rect x="42.12" y="74.48" class="st6" width="13.75" height="15.4"/>
			<path class="st7" d="M42.12,76.3c0,0,5.78,3.68,13.75,2.83v-4.65H42.12V76.3z"/>
			<ellipse class="st7" cx="22.29" cy="50.6" rx="6.71" ry="7.66"/>
			<ellipse class="st7" cx="75.71" cy="50.6" rx="6.71" ry="7.66"/>
			<path class="st6" d="M75.68,35.98c0-11.28-8.25-19.53-26.68-19.53S22.32,24.7,22.32,35.98c0,11.28-1.93,40.98,26.68,40.98
				S75.68,47.26,75.68,35.98z"/>
			<g>
				<g>
					<ellipse class="st8" cx="36.01" cy="48.77" rx="2.89" ry="3.16"/>
					<circle class="st9" cx="34.75" cy="47.37" r="0.86"/>
				</g>
				<path class="st21" d="M31.39,40.93c1.37,0.68,3.56-2.32,8.58,0.29c0.92,0.48,1.46-4.07-3.92-4.07
					C31.39,37.15,30.56,40.52,31.39,40.93z"/>
				<g>
					<ellipse class="st8" cx="62.35" cy="48.77" rx="2.89" ry="3.16"/>
					<circle class="st9" cx="61.09" cy="47.37" r="0.86"/>
				</g>
				<path class="st21" d="M66.61,40.93c-1.37,0.68-3.56-2.32-8.58,0.29c-0.92,0.48-1.46-4.07,3.92-4.07
					C66.61,37.15,67.44,40.52,66.61,40.93z"/>
			</g>
			<path class="st7" d="M49,59.89c-2.85,0-4.57-2.13-4.57-1.1c0,1.03,0.83,2.99,4.57,2.99c3.75,0,4.57-1.96,4.57-2.99
				C53.57,57.76,51.85,59.89,49,59.89z"/>
			<path class="st7" d="M49,69.38c-0.99,0-1.58-0.74-1.58-0.38s0.29,1.03,1.58,1.03c1.3,0,1.58-0.68,1.58-1.03
				C50.58,68.64,49.99,69.38,49,69.38z"/>
			<path class="st11" d="M49,66.75c-4.52,0-7.25-1.84-7.25-1.37c0,0.47,1.31,2.3,7.25,2.3s7.25-1.84,7.25-2.3
				C56.25,64.91,53.52,66.75,49,66.75z"/>
		</g>
		<path class="st22" d="M49,80.67c-10.05,0-20.81,4.17-27.33,9C29.48,94.93,38.88,98,49,98s19.52-3.07,27.33-8.33
			C69.81,84.84,59.05,80.67,49,80.67z"/>
		<path class="st23" d="M49,80.67c-3.36,0-6.81,0.47-10.15,1.27c0.02,0.03,3.7,4.78,10.15,4.78c5.97,0,9.93-4.07,10.51-4.69
			C56.06,81.17,52.49,80.67,49,80.67z"/>
		<path class="st6" d="M42.12,81.27c0,0,2.01,2.49,6.88,2.49s6.88-2.49,6.88-2.49S48.74,78.68,42.12,81.27z"/>
		<path class="st21" d="M49,71.08v6.39c-14.37,0-19.11-7.66-20.52-9.8c-1.04-1.58,6.76,5.57,13.64,5.57
			C45.15,73.25,45.01,71.08,49,71.08z"/>
		<path class="st21" d="M49,71.08v6.39c14.37,0,19.11-7.66,20.52-9.8c1.04-1.58-6.76,5.57-13.64,5.57
			C52.85,73.25,52.99,71.08,49,71.08z"/>
		<path class="st21" d="M49.18,28.55V6c-23.56,0-27.96,8.8-29.06,25.3c-1.1,16.5,1.38,22.18,3.03,22.16
			c1.65-0.02,0.76-18.92,3.02-22.99C30.3,23.05,37.67,28.55,49.18,28.55z"/>
		<path class="st21" d="M49.18,28.55V6c23.56,0,27.96,8.8,29.06,25.3c1.1,16.5-1.38,22.18-3.03,22.16
			c-1.65-0.02-0.76-18.92-3.02-22.99C68.06,23.05,60.69,28.55,49.18,28.55z"/>
		<path class="st24" d="M21.68,89.68c3.87,2.6,8.13,4.67,12.68,6.09V83.24h0C29.45,84.9,25.01,87.2,21.68,89.68z"/>
		<path class="st25" d="M29.76,94.07c1.81,0.77,3.68,1.43,5.6,1.99V82.18c0,0-2.68,1.03-3.61,1.51L29.76,94.07z"/>
		<path class="st24" d="M76.32,89.68c-3.34-2.48-7.78-4.78-12.68-6.43h0v12.53C68.19,94.35,72.46,92.28,76.32,89.68z"/>
		<path class="st25" d="M68.24,94.07L66.26,83.7c-0.93-0.48-3.61-1.51-3.61-1.51v13.87C64.56,95.5,66.43,94.85,68.24,94.07z"/>
	</g>
</g>
</svg>
